<svg width="none" height="none" viewBox="0 0 24 24" fill="none" xmlns="http://www.w3.org/2000/svg">
<path d="M11.4 8.90159V12.0938C12.6234 12.3703 13.7109 12.825 14.85 13.1391V9.94221C13.6312 9.67034 12.5344 9.21565 11.4 8.90159ZM21.8672 3.13596C20.2594 3.88128 18.2812 4.63128 16.3828 4.63128C13.875 4.63128 11.7984 3.00003 8.63906 3.00003C7.46719 3.00003 6.42188 3.20628 5.45156 3.56253C5.58281 3.22034 5.64375 2.85003 5.62031 2.45628C5.53594 1.12503 4.44375 0.0562754 3.10781 2.53879e-05C1.60781 -0.0609121 0.375 1.13909 0.375 2.62503C0.375 3.51565 0.820312 4.30315 1.5 4.77659V22.875C1.5 23.4985 2.00156 24 2.625 24H3.375C3.99844 24 4.5 23.4985 4.5 22.875V18.45C5.82656 17.8828 7.48125 17.4141 9.8625 17.4141C12.375 17.4141 14.4469 19.0453 17.6063 19.0453C19.8656 19.0453 21.6703 18.2813 23.3484 17.1282C23.7563 16.8469 23.9953 16.3875 23.9953 15.8907V4.49534C24 3.40315 22.8609 2.67659 21.8672 3.13596ZM7.95 15.2578C6.74063 15.3844 5.60625 15.6422 4.5 16.036V12.7313C5.72813 12.2953 6.72656 12.0281 7.95 11.9156V15.2578ZM21.75 8.95315C20.6437 9.41253 19.5797 9.86721 18.3 10.0735V13.4063C19.4625 13.2469 20.7094 12.8532 21.75 12.1875V15.4922C20.5734 16.2469 19.4766 16.65 18.3 16.7625V13.4063C17.0344 13.5797 16.0547 13.4766 14.85 13.1438V16.3032C13.7297 15.9563 12.6328 15.5203 11.4 15.3047V12.0938C10.4766 11.8875 9.4875 11.775 7.95 11.9156V8.6344C6.9 8.77971 5.85938 9.11252 4.5 9.61409V6.3094C6.05625 5.73753 6.84844 5.38128 7.95 5.27815V8.6344C9.21563 8.46096 10.2188 8.57346 11.4 8.90159V5.74221C12.5109 6.08909 13.6125 6.52503 14.85 6.74065V9.9469C15.9609 10.1953 17.0812 10.2703 18.3 10.0735V6.70315C19.5656 6.47815 20.7516 6.06565 21.75 5.64846V8.95315Z" />
</svg>
