<svg width="none" height="none"  stroke-width="none" viewBox="0 0 17 21" fill="none" xmlns="http://www.w3.org/2000/svg">
<path d="M0.811035 21C0.811035 18.8783 1.65389 16.8434 3.15418 15.3431C4.65447 13.8429 6.6893 13 8.81104 13C10.9328 13 12.9676 13.8429 14.4679 15.3431C15.9682 16.8434 16.811 18.8783 16.811 21H14.811C14.811 19.4087 14.1789 17.8826 13.0537 16.7574C11.9285 15.6321 10.4023 15 8.81104 15C7.21974 15 5.69361 15.6321 4.56839 16.7574C3.44318 17.8826 2.81104 19.4087 2.81104 21H0.811035ZM8.81104 12C5.49604 12 2.81104 9.315 2.81104 6C2.81104 2.685 5.49604 0 8.81104 0C12.126 0 14.811 2.685 14.811 6C14.811 9.315 12.126 12 8.81104 12ZM8.81104 10C11.021 10 12.811 8.21 12.811 6C12.811 3.79 11.021 2 8.81104 2C6.60104 2 4.81104 3.79 4.81104 6C4.81104 8.21 6.60104 10 8.81104 10Z" />
</svg>
